<svg width="169" height="80" viewBox="0 0 169 80" fill="none" xmlns="http://www.w3.org/2000/svg">
<rect x="0.886719" y="19.3116" width="167.605" height="60.0732" rx="3.04586" fill="url(#paint0_radial_488_20)"/>
<path d="M63.9276 43.1648H65.403V51.2316C65.403 52.0644 65.2067 52.8081 64.814 53.4625C64.4254 54.1129 63.8761 54.6265 63.1662 55.0032C62.4563 55.376 61.6234 55.5624 60.6676 55.5624C59.7118 55.5624 58.879 55.376 58.1691 55.0032C57.4591 54.6265 56.9079 54.1129 56.5152 53.4625C56.1266 52.8081 55.9322 52.0644 55.9322 51.2316V43.1648H57.4076V51.1126C57.4076 51.7075 57.5385 52.237 57.8002 52.701C58.062 53.161 58.4348 53.5239 58.9186 53.7896C59.4064 54.0514 59.9894 54.1823 60.6676 54.1823C61.3458 54.1823 61.9288 54.0514 62.4166 53.7896C62.9044 53.5239 63.2772 53.161 63.535 52.701C63.7968 52.237 63.9276 51.7075 63.9276 51.1126V43.1648ZM58.9543 41.6419C58.7045 41.6419 58.4824 41.5467 58.288 41.3563C58.0977 41.162 58.0025 40.9399 58.0025 40.6901C58.0025 40.4164 58.0977 40.1904 58.288 40.0119C58.4824 39.8294 58.7045 39.7382 58.9543 39.7382C59.228 39.7382 59.454 39.8294 59.6325 40.0119C59.8149 40.1904 59.9061 40.4164 59.9061 40.6901C59.9061 40.9399 59.8149 41.162 59.6325 41.3563C59.454 41.5467 59.228 41.6419 58.9543 41.6419ZM62.3809 41.6419C62.1311 41.6419 61.909 41.5467 61.7146 41.3563C61.5243 41.162 61.4291 40.9399 61.4291 40.6901C61.4291 40.4164 61.5243 40.1904 61.7146 40.0119C61.909 39.8294 62.1311 39.7382 62.3809 39.7382C62.6546 39.7382 62.8806 39.8294 63.0591 40.0119C63.2415 40.1904 63.3327 40.4164 63.3327 40.6901C63.3327 40.9399 63.2415 41.162 63.0591 41.3563C62.8806 41.5467 62.6546 41.6419 62.3809 41.6419ZM67.3022 43.1648H68.9917L72.3707 48.852H72.5134L75.8925 43.1648H77.582L73.1797 50.3274V55.3483H71.7044V50.3274L67.3022 43.1648ZM79.4901 55.3483V43.1648H86.843V44.4736H80.9654V48.5903H86.4622V49.899H80.9654V54.0395H86.9382V55.3483H79.4901ZM104.493 49.2565C104.493 50.5415 104.261 51.652 103.797 52.588C103.333 53.5239 102.697 54.2457 101.888 54.7534C101.079 55.261 100.155 55.5148 99.1157 55.5148C98.0766 55.5148 97.1525 55.261 96.3434 54.7534C95.5344 54.2457 94.8978 53.5239 94.4338 52.588C93.9698 51.652 93.7378 50.5415 93.7378 49.2565C93.7378 47.9716 93.9698 46.8611 94.4338 45.9251C94.8978 44.9892 95.5344 44.2674 96.3434 43.7597C97.1525 43.2521 98.0766 42.9983 99.1157 42.9983C100.155 42.9983 101.079 43.2521 101.888 43.7597C102.697 44.2674 103.333 44.9892 103.797 45.9251C104.261 46.8611 104.493 47.9716 104.493 49.2565ZM103.066 49.2565C103.066 48.2016 102.889 47.3112 102.536 46.5855C102.187 45.8597 101.713 45.3104 101.114 44.9376C100.52 44.5648 99.8533 44.3784 99.1157 44.3784C98.378 44.3784 97.7097 44.5648 97.1109 44.9376C96.516 45.3104 96.042 45.8597 95.6891 46.5855C95.3401 47.3112 95.1656 48.2016 95.1656 49.2565C95.1656 50.3115 95.3401 51.2019 95.6891 51.9276C96.042 52.6534 96.516 53.2027 97.1109 53.5755C97.7097 53.9483 98.378 54.1347 99.1157 54.1347C99.8533 54.1347 100.52 53.9483 101.114 53.5755C101.713 53.2027 102.187 52.6534 102.536 51.9276C102.889 51.2019 103.066 50.3115 103.066 49.2565ZM106.974 55.3483V43.1648H108.45V54.0395H114.113V55.3483H106.974Z" fill="white"/>
<mask id="path-3-outside-1_488_20" maskUnits="userSpaceOnUse" x="67.6055" y="-0.656982" width="34" height="32" fill="black">
<rect fill="white" x="67.6055" y="-0.656982" width="34" height="32"/>
<path d="M79.7008 2.02426C78.9469 2.13864 78.2323 2.55802 77.8012 3.13944C77.4209 3.65414 77.2318 4.2165 77.2272 4.83604C77.2249 5.63192 77.4831 6.28244 78.0272 6.83765C78.2969 7.11406 78.5159 7.2761 78.8709 7.45958C79.0207 7.53821 79.1175 7.60255 79.1129 7.61923C79.106 7.63591 78.8686 8.84402 78.5827 10.3047C78.2969 11.7654 78.0571 12.9783 78.0456 12.9997C78.0341 13.0307 77.7667 12.7591 76.8653 11.8012C76.2245 11.122 75.5951 10.4477 75.466 10.3047L75.2286 10.0474L75.3761 9.81623C75.6435 9.40638 75.7288 9.08469 75.7058 8.57238C75.6758 7.90756 75.4545 7.37856 75.0027 6.89246C74.5024 6.35631 73.8662 6.0799 73.1308 6.08228C72.43 6.08467 71.8168 6.34678 71.3373 6.84718C70.3968 7.83131 70.3576 9.39685 71.2497 10.3691C71.6393 10.7956 72.1234 11.0506 72.7505 11.1578L73.0017 11.2031L74.6223 16.3477C75.5144 19.1761 76.2429 21.5042 76.2429 21.5185C76.2429 21.5304 76.1484 21.621 76.0354 21.7163C75.0511 22.5407 74.4333 23.5701 74.159 24.8474C74.0091 25.536 73.9607 26.096 73.9446 27.3374L73.9307 28.343L84.8207 28.3383L95.7107 28.3311L95.7061 27.509C95.6991 26.0745 95.6115 25.2381 95.3879 24.4304C95.0836 23.3438 94.4751 22.4144 93.5783 21.6734C93.4446 21.5638 93.334 21.4661 93.3317 21.4589C93.3247 21.4446 96.6374 11.2054 96.6512 11.1983C96.6535 11.1959 96.7549 11.1816 96.8748 11.1649C97.4442 11.0911 97.9629 10.8123 98.3663 10.3643C98.7859 9.89963 99.0002 9.33489 99.0002 8.68437C99.0002 7.32137 98.0067 6.22049 96.6558 6.08705C95.494 5.97505 94.3944 6.71136 94.0278 7.85037C93.9402 8.12678 93.9011 8.3746 93.9011 8.68437C93.9011 9.11091 93.9956 9.52552 94.1754 9.89725L94.2491 10.0474L93.9425 10.3738C93.7743 10.5525 93.1334 11.2317 92.5179 11.8846C91.6004 12.8615 91.3976 13.0665 91.3837 13.0283C91.3653 12.9831 90.3971 7.65736 90.3971 7.60493C90.3971 7.59064 90.4893 7.53345 90.5999 7.48102C90.8927 7.34282 91.2316 7.09977 91.4667 6.8591C92.1352 6.16807 92.4165 5.20539 92.2182 4.27607C91.9877 3.17995 91.0979 2.30782 89.9522 2.05762C89.6456 1.98852 89.0739 1.98375 88.7949 2.04571C87.859 2.2554 87.1144 2.83682 86.7225 3.66606C86.2914 4.57393 86.3929 5.6629 86.9876 6.53979C87.1236 6.74234 87.3818 7.01637 87.5455 7.13313C87.6262 7.19032 87.6538 7.22129 87.6423 7.24989C87.6008 7.36426 84.7354 12.6113 84.7239 12.597C84.7147 12.5875 84.0623 11.3746 83.2739 9.90202L81.8377 7.22129L81.9138 7.16172C82.4763 6.71851 82.8589 6.09896 82.9973 5.39602C83.0664 5.04574 83.0549 4.51674 82.9673 4.17361C82.8451 3.69942 82.6008 3.2705 82.2365 2.89401C81.8147 2.45794 81.2799 2.16485 80.6851 2.04809C80.4154 1.99567 79.9636 1.98375 79.7008 2.02426ZM80.4039 3.93055C80.6989 4.01157 80.9318 4.20697 81.0655 4.48338C81.1369 4.63588 81.1415 4.65971 81.1415 4.89562C81.1415 5.12675 81.1369 5.15773 81.0701 5.3007C80.888 5.69626 80.5399 5.92025 80.1134 5.92025C79.7722 5.92025 79.4795 5.75106 79.2674 5.43176C79.1337 5.22922 79.0876 4.86702 79.1613 4.60967C79.3112 4.08544 79.8598 3.7852 80.4039 3.93055ZM89.6479 3.93055C90.2703 4.09974 90.5585 4.76217 90.2703 5.36266C90.0905 5.74153 89.7493 5.93693 89.3021 5.91548C89.1131 5.90833 89.0693 5.89642 88.9148 5.81778C88.3108 5.50801 88.1587 4.68592 88.6197 4.20935C88.7373 4.08782 88.9563 3.95677 89.0969 3.92102C89.2399 3.88766 89.5003 3.89243 89.6479 3.93055ZM73.3729 7.78841C73.6311 7.8599 73.8201 8.00764 73.94 8.23639C74.0137 8.37937 74.0183 8.39843 74.0183 8.6248C74.0183 8.84164 74.0114 8.875 73.9515 9.00129C73.7279 9.45642 73.1723 9.63514 72.732 9.39447C72.566 9.30153 72.4531 9.17524 72.3632 8.97508C72.3032 8.83926 72.2917 8.78922 72.2917 8.6248C72.2917 8.37698 72.3678 8.19112 72.5407 8.01955C72.7827 7.78365 73.0709 7.70501 73.3729 7.78841ZM96.7964 7.84799C96.9855 7.93854 97.1791 8.13631 97.2598 8.31979C97.405 8.64863 97.2944 9.05372 96.9878 9.30392C96.5037 9.69947 95.7821 9.47548 95.6138 8.87738C95.5608 8.68199 95.5816 8.41987 95.6646 8.26022C95.8974 7.81701 96.3723 7.64306 96.7964 7.84799ZM82.6538 12.8496C83.7672 14.8727 84.6916 16.5502 84.7077 16.5764C84.7354 16.6193 84.9198 16.2905 86.7894 12.8925C88.2878 10.1689 88.8526 9.16095 88.8825 9.16095C88.9033 9.16095 88.9217 9.16809 88.924 9.17763C88.9309 9.31107 90.2081 16.7504 90.2219 16.7456C90.2311 16.7456 91.0702 15.9211 92.0845 14.9156C93.742 13.2714 93.931 13.0903 93.9633 13.1237C93.9956 13.157 93.8642 13.5454 92.6608 16.9648C91.9232 19.0594 91.3169 20.775 91.3146 20.7774C91.31 20.7822 91.2201 20.7679 91.1117 20.7512C90.0582 20.5725 88.3154 20.3699 87.0314 20.277C84.6201 20.1031 82.0867 20.1555 80.1042 20.4224C79.6616 20.4819 78.8524 20.6154 78.5643 20.6773C78.4237 20.7083 78.4075 20.7083 78.3891 20.6726C78.3799 20.6511 77.7252 18.9569 76.9345 16.91C75.5329 13.2714 75.5006 13.1832 75.5421 13.1403C75.5859 13.0974 75.6343 13.1475 77.4186 14.9656C79.0553 16.636 79.2512 16.829 79.2674 16.7814C79.2766 16.7504 79.5648 15.0371 79.9082 12.9735C80.2517 10.91 80.5376 9.20622 80.5445 9.18954C80.5491 9.17048 80.5721 9.16095 80.5929 9.16571C80.6182 9.17048 81.3628 10.5025 82.6538 12.8496ZM87.2158 22.7457C88.3892 22.8172 89.0531 22.9458 90.4662 23.3795C91.8817 23.8132 92.6424 24.3255 92.9305 25.0404C92.9997 25.2119 93.0712 25.5551 93.0712 25.7123V25.7934L84.8253 25.7886L76.5795 25.7814L76.5864 25.6385C76.6002 25.3025 76.7132 24.9308 76.893 24.6448C77.0198 24.4423 77.3194 24.142 77.5592 23.9752C78.2853 23.4772 79.6316 23.0721 81.1646 22.8886C82.1374 22.7719 82.7045 22.7409 84.2421 22.7195C85.6713 22.7004 86.6119 22.7075 87.2158 22.7457Z"/>
</mask>
<path d="M79.7008 2.02426C78.9469 2.13864 78.2323 2.55802 77.8012 3.13944C77.4209 3.65414 77.2318 4.2165 77.2272 4.83604C77.2249 5.63192 77.4831 6.28244 78.0272 6.83765C78.2969 7.11406 78.5159 7.2761 78.8709 7.45958C79.0207 7.53821 79.1175 7.60255 79.1129 7.61923C79.106 7.63591 78.8686 8.84402 78.5827 10.3047C78.2969 11.7654 78.0571 12.9783 78.0456 12.9997C78.0341 13.0307 77.7667 12.7591 76.8653 11.8012C76.2245 11.122 75.5951 10.4477 75.466 10.3047L75.2286 10.0474L75.3761 9.81623C75.6435 9.40638 75.7288 9.08469 75.7058 8.57238C75.6758 7.90756 75.4545 7.37856 75.0027 6.89246C74.5024 6.35631 73.8662 6.0799 73.1308 6.08228C72.43 6.08467 71.8168 6.34678 71.3373 6.84718C70.3968 7.83131 70.3576 9.39685 71.2497 10.3691C71.6393 10.7956 72.1234 11.0506 72.7505 11.1578L73.0017 11.2031L74.6223 16.3477C75.5144 19.1761 76.2429 21.5042 76.2429 21.5185C76.2429 21.5304 76.1484 21.621 76.0354 21.7163C75.0511 22.5407 74.4333 23.5701 74.159 24.8474C74.0091 25.536 73.9607 26.096 73.9446 27.3374L73.9307 28.343L84.8207 28.3383L95.7107 28.3311L95.7061 27.509C95.6991 26.0745 95.6115 25.2381 95.3879 24.4304C95.0836 23.3438 94.4751 22.4144 93.5783 21.6734C93.4446 21.5638 93.334 21.4661 93.3317 21.4589C93.3247 21.4446 96.6374 11.2054 96.6512 11.1983C96.6535 11.1959 96.7549 11.1816 96.8748 11.1649C97.4442 11.0911 97.9629 10.8123 98.3663 10.3643C98.7859 9.89963 99.0002 9.33489 99.0002 8.68437C99.0002 7.32137 98.0067 6.22049 96.6558 6.08705C95.494 5.97505 94.3944 6.71136 94.0278 7.85037C93.9402 8.12678 93.9011 8.3746 93.9011 8.68437C93.9011 9.11091 93.9956 9.52552 94.1754 9.89725L94.2491 10.0474L93.9425 10.3738C93.7743 10.5525 93.1334 11.2317 92.5179 11.8846C91.6004 12.8615 91.3976 13.0665 91.3837 13.0283C91.3653 12.9831 90.3971 7.65736 90.3971 7.60493C90.3971 7.59064 90.4893 7.53345 90.5999 7.48102C90.8927 7.34282 91.2316 7.09977 91.4667 6.8591C92.1352 6.16807 92.4165 5.20539 92.2182 4.27607C91.9877 3.17995 91.0979 2.30782 89.9522 2.05762C89.6456 1.98852 89.0739 1.98375 88.7949 2.04571C87.859 2.2554 87.1144 2.83682 86.7225 3.66606C86.2914 4.57393 86.3929 5.6629 86.9876 6.53979C87.1236 6.74234 87.3818 7.01637 87.5455 7.13313C87.6262 7.19032 87.6538 7.22129 87.6423 7.24989C87.6008 7.36426 84.7354 12.6113 84.7239 12.597C84.7147 12.5875 84.0623 11.3746 83.2739 9.90202L81.8377 7.22129L81.9138 7.16172C82.4763 6.71851 82.8589 6.09896 82.9973 5.39602C83.0664 5.04574 83.0549 4.51674 82.9673 4.17361C82.8451 3.69942 82.6008 3.2705 82.2365 2.89401C81.8147 2.45794 81.2799 2.16485 80.6851 2.04809C80.4154 1.99567 79.9636 1.98375 79.7008 2.02426ZM80.4039 3.93055C80.6989 4.01157 80.9318 4.20697 81.0655 4.48338C81.1369 4.63588 81.1415 4.65971 81.1415 4.89562C81.1415 5.12675 81.1369 5.15773 81.0701 5.3007C80.888 5.69626 80.5399 5.92025 80.1134 5.92025C79.7722 5.92025 79.4795 5.75106 79.2674 5.43176C79.1337 5.22922 79.0876 4.86702 79.1613 4.60967C79.3112 4.08544 79.8598 3.7852 80.4039 3.93055ZM89.6479 3.93055C90.2703 4.09974 90.5585 4.76217 90.2703 5.36266C90.0905 5.74153 89.7493 5.93693 89.3021 5.91548C89.1131 5.90833 89.0693 5.89642 88.9148 5.81778C88.3108 5.50801 88.1587 4.68592 88.6197 4.20935C88.7373 4.08782 88.9563 3.95677 89.0969 3.92102C89.2399 3.88766 89.5003 3.89243 89.6479 3.93055ZM73.3729 7.78841C73.6311 7.8599 73.8201 8.00764 73.94 8.23639C74.0137 8.37937 74.0183 8.39843 74.0183 8.6248C74.0183 8.84164 74.0114 8.875 73.9515 9.00129C73.7279 9.45642 73.1723 9.63514 72.732 9.39447C72.566 9.30153 72.4531 9.17524 72.3632 8.97508C72.3032 8.83926 72.2917 8.78922 72.2917 8.6248C72.2917 8.37698 72.3678 8.19112 72.5407 8.01955C72.7827 7.78365 73.0709 7.70501 73.3729 7.78841ZM96.7964 7.84799C96.9855 7.93854 97.1791 8.13631 97.2598 8.31979C97.405 8.64863 97.2944 9.05372 96.9878 9.30392C96.5037 9.69947 95.7821 9.47548 95.6138 8.87738C95.5608 8.68199 95.5816 8.41987 95.6646 8.26022C95.8974 7.81701 96.3723 7.64306 96.7964 7.84799ZM82.6538 12.8496C83.7672 14.8727 84.6916 16.5502 84.7077 16.5764C84.7354 16.6193 84.9198 16.2905 86.7894 12.8925C88.2878 10.1689 88.8526 9.16095 88.8825 9.16095C88.9033 9.16095 88.9217 9.16809 88.924 9.17763C88.9309 9.31107 90.2081 16.7504 90.2219 16.7456C90.2311 16.7456 91.0702 15.9211 92.0845 14.9156C93.742 13.2714 93.931 13.0903 93.9633 13.1237C93.9956 13.157 93.8642 13.5454 92.6608 16.9648C91.9232 19.0594 91.3169 20.775 91.3146 20.7774C91.31 20.7822 91.2201 20.7679 91.1117 20.7512C90.0582 20.5725 88.3154 20.3699 87.0314 20.277C84.6201 20.1031 82.0867 20.1555 80.1042 20.4224C79.6616 20.4819 78.8524 20.6154 78.5643 20.6773C78.4237 20.7083 78.4075 20.7083 78.3891 20.6726C78.3799 20.6511 77.7252 18.9569 76.9345 16.91C75.5329 13.2714 75.5006 13.1832 75.5421 13.1403C75.5859 13.0974 75.6343 13.1475 77.4186 14.9656C79.0553 16.636 79.2512 16.829 79.2674 16.7814C79.2766 16.7504 79.5648 15.0371 79.9082 12.9735C80.2517 10.91 80.5376 9.20622 80.5445 9.18954C80.5491 9.17048 80.5721 9.16095 80.5929 9.16571C80.6182 9.17048 81.3628 10.5025 82.6538 12.8496ZM87.2158 22.7457C88.3892 22.8172 89.0531 22.9458 90.4662 23.3795C91.8817 23.8132 92.6424 24.3255 92.9305 25.0404C92.9997 25.2119 93.0712 25.5551 93.0712 25.7123V25.7934L84.8253 25.7886L76.5795 25.7814L76.5864 25.6385C76.6002 25.3025 76.7132 24.9308 76.893 24.6448C77.0198 24.4423 77.3194 24.142 77.5592 23.9752C78.2853 23.4772 79.6316 23.0721 81.1646 22.8886C82.1374 22.7719 82.7045 22.7409 84.2421 22.7195C85.6713 22.7004 86.6119 22.7075 87.2158 22.7457Z" fill="url(#paint1_linear_488_20)"/>
<path d="M79.7008 2.02426C78.9469 2.13864 78.2323 2.55802 77.8012 3.13944C77.4209 3.65414 77.2318 4.2165 77.2272 4.83604C77.2249 5.63192 77.4831 6.28244 78.0272 6.83765C78.2969 7.11406 78.5159 7.2761 78.8709 7.45958C79.0207 7.53821 79.1175 7.60255 79.1129 7.61923C79.106 7.63591 78.8686 8.84402 78.5827 10.3047C78.2969 11.7654 78.0571 12.9783 78.0456 12.9997C78.0341 13.0307 77.7667 12.7591 76.8653 11.8012C76.2245 11.122 75.5951 10.4477 75.466 10.3047L75.2286 10.0474L75.3761 9.81623C75.6435 9.40638 75.7288 9.08469 75.7058 8.57238C75.6758 7.90756 75.4545 7.37856 75.0027 6.89246C74.5024 6.35631 73.8662 6.0799 73.1308 6.08228C72.43 6.08467 71.8168 6.34678 71.3373 6.84718C70.3968 7.83131 70.3576 9.39685 71.2497 10.3691C71.6393 10.7956 72.1234 11.0506 72.7505 11.1578L73.0017 11.2031L74.6223 16.3477C75.5144 19.1761 76.2429 21.5042 76.2429 21.5185C76.2429 21.5304 76.1484 21.621 76.0354 21.7163C75.0511 22.5407 74.4333 23.5701 74.159 24.8474C74.0091 25.536 73.9607 26.096 73.9446 27.3374L73.9307 28.343L84.8207 28.3383L95.7107 28.3311L95.7061 27.509C95.6991 26.0745 95.6115 25.2381 95.3879 24.4304C95.0836 23.3438 94.4751 22.4144 93.5783 21.6734C93.4446 21.5638 93.334 21.4661 93.3317 21.4589C93.3247 21.4446 96.6374 11.2054 96.6512 11.1983C96.6535 11.1959 96.7549 11.1816 96.8748 11.1649C97.4442 11.0911 97.9629 10.8123 98.3663 10.3643C98.7859 9.89963 99.0002 9.33489 99.0002 8.68437C99.0002 7.32137 98.0067 6.22049 96.6558 6.08705C95.494 5.97505 94.3944 6.71136 94.0278 7.85037C93.9402 8.12678 93.9011 8.3746 93.9011 8.68437C93.9011 9.11091 93.9956 9.52552 94.1754 9.89725L94.2491 10.0474L93.9425 10.3738C93.7743 10.5525 93.1334 11.2317 92.5179 11.8846C91.6004 12.8615 91.3976 13.0665 91.3837 13.0283C91.3653 12.9831 90.3971 7.65736 90.3971 7.60493C90.3971 7.59064 90.4893 7.53345 90.5999 7.48102C90.8927 7.34282 91.2316 7.09977 91.4667 6.8591C92.1352 6.16807 92.4165 5.20539 92.2182 4.27607C91.9877 3.17995 91.0979 2.30782 89.9522 2.05762C89.6456 1.98852 89.0739 1.98375 88.7949 2.04571C87.859 2.2554 87.1144 2.83682 86.7225 3.66606C86.2914 4.57393 86.3929 5.6629 86.9876 6.53979C87.1236 6.74234 87.3818 7.01637 87.5455 7.13313C87.6262 7.19032 87.6538 7.22129 87.6423 7.24989C87.6008 7.36426 84.7354 12.6113 84.7239 12.597C84.7147 12.5875 84.0623 11.3746 83.2739 9.90202L81.8377 7.22129L81.9138 7.16172C82.4763 6.71851 82.8589 6.09896 82.9973 5.39602C83.0664 5.04574 83.0549 4.51674 82.9673 4.17361C82.8451 3.69942 82.6008 3.2705 82.2365 2.89401C81.8147 2.45794 81.2799 2.16485 80.6851 2.04809C80.4154 1.99567 79.9636 1.98375 79.7008 2.02426ZM80.4039 3.93055C80.6989 4.01157 80.9318 4.20697 81.0655 4.48338C81.1369 4.63588 81.1415 4.65971 81.1415 4.89562C81.1415 5.12675 81.1369 5.15773 81.0701 5.3007C80.888 5.69626 80.5399 5.92025 80.1134 5.92025C79.7722 5.92025 79.4795 5.75106 79.2674 5.43176C79.1337 5.22922 79.0876 4.86702 79.1613 4.60967C79.3112 4.08544 79.8598 3.7852 80.4039 3.93055ZM89.6479 3.93055C90.2703 4.09974 90.5585 4.76217 90.2703 5.36266C90.0905 5.74153 89.7493 5.93693 89.3021 5.91548C89.1131 5.90833 89.0693 5.89642 88.9148 5.81778C88.3108 5.50801 88.1587 4.68592 88.6197 4.20935C88.7373 4.08782 88.9563 3.95677 89.0969 3.92102C89.2399 3.88766 89.5003 3.89243 89.6479 3.93055ZM73.3729 7.78841C73.6311 7.8599 73.8201 8.00764 73.94 8.23639C74.0137 8.37937 74.0183 8.39843 74.0183 8.6248C74.0183 8.84164 74.0114 8.875 73.9515 9.00129C73.7279 9.45642 73.1723 9.63514 72.732 9.39447C72.566 9.30153 72.4531 9.17524 72.3632 8.97508C72.3032 8.83926 72.2917 8.78922 72.2917 8.6248C72.2917 8.37698 72.3678 8.19112 72.5407 8.01955C72.7827 7.78365 73.0709 7.70501 73.3729 7.78841ZM96.7964 7.84799C96.9855 7.93854 97.1791 8.13631 97.2598 8.31979C97.405 8.64863 97.2944 9.05372 96.9878 9.30392C96.5037 9.69947 95.7821 9.47548 95.6138 8.87738C95.5608 8.68199 95.5816 8.41987 95.6646 8.26022C95.8974 7.81701 96.3723 7.64306 96.7964 7.84799ZM82.6538 12.8496C83.7672 14.8727 84.6916 16.5502 84.7077 16.5764C84.7354 16.6193 84.9198 16.2905 86.7894 12.8925C88.2878 10.1689 88.8526 9.16095 88.8825 9.16095C88.9033 9.16095 88.9217 9.16809 88.924 9.17763C88.9309 9.31107 90.2081 16.7504 90.2219 16.7456C90.2311 16.7456 91.0702 15.9211 92.0845 14.9156C93.742 13.2714 93.931 13.0903 93.9633 13.1237C93.9956 13.157 93.8642 13.5454 92.6608 16.9648C91.9232 19.0594 91.3169 20.775 91.3146 20.7774C91.31 20.7822 91.2201 20.7679 91.1117 20.7512C90.0582 20.5725 88.3154 20.3699 87.0314 20.277C84.6201 20.1031 82.0867 20.1555 80.1042 20.4224C79.6616 20.4819 78.8524 20.6154 78.5643 20.6773C78.4237 20.7083 78.4075 20.7083 78.3891 20.6726C78.3799 20.6511 77.7252 18.9569 76.9345 16.91C75.5329 13.2714 75.5006 13.1832 75.5421 13.1403C75.5859 13.0974 75.6343 13.1475 77.4186 14.9656C79.0553 16.636 79.2512 16.829 79.2674 16.7814C79.2766 16.7504 79.5648 15.0371 79.9082 12.9735C80.2517 10.91 80.5376 9.20622 80.5445 9.18954C80.5491 9.17048 80.5721 9.16095 80.5929 9.16571C80.6182 9.17048 81.3628 10.5025 82.6538 12.8496ZM87.2158 22.7457C88.3892 22.8172 89.0531 22.9458 90.4662 23.3795C91.8817 23.8132 92.6424 24.3255 92.9305 25.0404C92.9997 25.2119 93.0712 25.5551 93.0712 25.7123V25.7934L84.8253 25.7886L76.5795 25.7814L76.5864 25.6385C76.6002 25.3025 76.7132 24.9308 76.893 24.6448C77.0198 24.4423 77.3194 24.142 77.5592 23.9752C78.2853 23.4772 79.6316 23.0721 81.1646 22.8886C82.1374 22.7719 82.7045 22.7409 84.2421 22.7195C85.6713 22.7004 86.6119 22.7075 87.2158 22.7457Z" stroke="#1C2425" stroke-width="4" mask="url(#path-3-outside-1_488_20)"/>
<defs>
<radialGradient id="paint0_radial_488_20" cx="0" cy="0" r="1" gradientUnits="userSpaceOnUse" gradientTransform="translate(84.6893 28.5) rotate(90) scale(30.5 85.0954)">
<stop stop-color="#57C8A5"/>
<stop offset="1" stop-color="#127E5D"/>
</radialGradient>
<linearGradient id="paint1_linear_488_20" x1="84.8029" y1="28.343" x2="84.8029" y2="2.00005" gradientUnits="userSpaceOnUse">
<stop stop-color="#058E6E"/>
<stop offset="1" stop-color="#00C99A"/>
</linearGradient>
</defs>
</svg>
